<svg width="40.000000" height="41.349121" viewBox="0 0 40 41.3491" fill="none" xmlns="http://www.w3.org/2000/svg" xmlns:xlink="http://www.w3.org/1999/xlink">
	<desc>
			Created with Pixso.
	</desc>
	<defs/>
	<rect id="back" rx="20.000000" width="40.000000" height="41.349129" fill="#FF3E79" fill-opacity="1.000000"/>
	<path id="icon" d="M12.76 24.03L15.3 23.73C15.91 23.66 16.51 23.87 16.94 24.32L18.78 26.22C21.61 24.73 23.93 22.34 25.37 19.41L23.52 17.5C23.09 17.05 22.88 16.43 22.95 15.8L23.24 13.2C23.36 12.15 24.21 11.37 25.23 11.37L26.96 11.37C28.09 11.37 29.03 12.34 28.96 13.51C28.43 22.33 21.6 29.38 13.07 29.93C11.94 30 11 29.03 11 27.86L11 26.08C10.99 25.03 11.75 24.15 12.76 24.03Z" fill="#FFFFFF" fill-opacity="1.000000" fill-rule="evenodd"/>
</svg>
