<svg width="40.000000" height="41.349121" viewBox="0 0 40 41.3491" fill="none" xmlns="http://www.w3.org/2000/svg" xmlns:xlink="http://www.w3.org/1999/xlink">
	<desc>
			Created with Pixso.
	</desc>
	<defs/>
	<rect id="back" rx="20.000000" width="40.000000" height="41.349129" fill="#FF3E79" fill-opacity="1.000000"/>
	<path id="icon" d="M12 11.3706L28 11.3706C29.1001 11.3706 30 12.301 30 13.438L30 24.8091C30 25.9463 29.1001 26.8765 28 26.8765L14 26.8765L10 32.0452L10.01 13.438C10.01 12.301 10.8999 11.3706 12 11.3706ZM15 17.5735L25 17.5735C25.55 17.5735 26 17.1084 26 16.5398C26 15.9714 25.55 15.5061 25 15.5061L15 15.5061C14.45 15.5061 14 15.9714 14 16.5398C14 17.1084 14.45 17.5735 15 17.5735ZM21 22.7422L15 22.7422C14.45 22.7422 14 22.2771 14 21.7085C14 21.1399 14.45 20.6748 15 20.6748L21 20.6748C21.55 20.6748 22 21.1399 22 21.7085C22 22.2771 21.55 22.7422 21 22.7422Z" clip-rule="evenodd" fill="#FFFFFF" fill-opacity="1.000000" fill-rule="evenodd"/>
	<mask id="mask0_964" mask-type="alpha" maskUnits="userSpaceOnUse" x="10.000000" y="11.370605" width="20.000000" height="20.674561">
		<path id="icon" d="M12 11.3706L28 11.3706C29.1001 11.3706 30 12.301 30 13.438L30 24.8091C30 25.9463 29.1001 26.8765 28 26.8765L14 26.8765L10 32.0452L10.01 13.438C10.01 12.301 10.8999 11.3706 12 11.3706ZM15 17.5735L25 17.5735C25.55 17.5735 26 17.1084 26 16.5398C26 15.9714 25.55 15.5061 25 15.5061L15 15.5061C14.45 15.5061 14 15.9714 14 16.5398C14 17.1084 14.45 17.5735 15 17.5735ZM21 22.7422L15 22.7422C14.45 22.7422 14 22.2771 14 21.7085C14 21.1399 14.45 20.6748 15 20.6748L21 20.6748C21.55 20.6748 22 21.1399 22 21.7085C22 22.2771 21.55 22.7422 21 22.7422Z" clip-rule="evenodd" fill="#FFFFFF" fill-opacity="1.000000" fill-rule="evenodd"/>
	</mask>
</svg>
